<svg xmlns="http://www.w3.org/2000/svg" fill="none" viewBox="0 0 20 20" class="size-5 shrink-0 text-ln-gray-400 transition ease-linear"><path stroke="currentColor" stroke-linejoin="round" stroke-width="1.25" d="M7.465 4.202 9.41 2.256a.833.833 0 0 1 1.179 0l1.946 1.946a.833.833 0 0 1 0 1.179L10.59 7.327a.833.833 0 0 1-1.179 0L7.465 5.381a.833.833 0 0 1 0-1.179Zm0 10.417 1.946-1.947a.833.833 0 0 1 1.179 0l1.946 1.947a.833.833 0 0 1 0 1.178l-1.946 1.947a.833.833 0 0 1-1.179 0l-1.946-1.947a.833.833 0 0 1 0-1.178ZM2.256 9.41l1.946-1.946a.833.833 0 0 1 1.179 0l1.946 1.947a.833.833 0 0 1 0 1.178l-1.946 1.947a.833.833 0 0 1-1.179 0l-1.946-1.947a.833.833 0 0 1 0-1.178Zm10.416 0 1.946-1.946a.833.833 0 0 1 1.179 0l1.946 1.947a.833.833 0 0 1 0 1.178l-1.946 1.947a.833.833 0 0 1-1.179 0l-1.946-1.947a.833.833 0 0 1 0-1.178Z"></path></svg>