<svg xmlns="http://www.w3.org/2000/svg" fill="none" viewBox="0 0 20 20" class="size-5 shrink-0 text-ln-gray-400 transition ease-linear"><path stroke="currentColor" stroke-width="1.25" d="M6.085 8.324a4.3 4.3 0 0 1-.368-1.743 4.286 4.286 0 0 1 4.282-4.29 4.286 4.286 0 0 1 4.283 4.29c0 .62-.132 1.21-.369 1.743m-7.828 0a4.287 4.287 0 0 0-3.794 4.262 4.286 4.286 0 0 0 4.282 4.289 4.28 4.28 0 0 0 3.426-1.715M6.085 8.324a4.29 4.29 0 0 0 3.426 2.519m4.402-2.519A4.27 4.27 0 0 0 10 10.012m3.914-1.688a4.287 4.287 0 0 1 3.795 4.262 4.286 4.286 0 0 1-4.283 4.289c-1.4 0-2.644-.674-3.426-1.715m0 0a4.27 4.27 0 0 0 .857-2.574c0-.62-.132-1.21-.369-1.743m-.976 0q.199-.446.488-.831m-.488.83a4.3 4.3 0 0 0 .976 0m-.488-.83q.29.385.488.83"></path></svg>