<svg width="36" height="36" viewBox="0 0 36 36" fill="none" xmlns="http://www.w3.org/2000/svg">
<rect width="36" height="36" rx="10" fill="#F2F3F5"/>
<path d="M23.2021 12.6004C22.0882 12.6004 21.0199 12.1579 20.2323 11.3702C19.4446 10.5826 19.0021 9.51431 19.0021 8.4004C19.0074 8.0265 19.063 7.65501 19.1675 7.29598C17.6195 7.0878 16.0446 7.21991 14.5529 7.68308C13.0612 8.14625 11.6885 8.92933 10.5305 9.97768C9.37264 11.026 8.45742 12.3144 7.84874 13.7529C7.24006 15.1914 6.95258 16.7454 7.00637 18.3065C7.11238 21.0546 8.25155 23.6615 10.1962 25.6062C12.1409 27.5509 14.7477 28.6901 17.4959 28.7961C19.0569 28.8499 20.611 28.5625 22.0495 27.9538C23.488 27.3452 24.7764 26.4299 25.8248 25.272C26.8732 24.1141 27.6563 22.7414 28.1194 21.2497C28.5826 19.7579 28.7147 18.1831 28.5066 16.635C27.8844 16.8165 27.2283 16.8495 26.591 16.7314C25.9537 16.6133 25.353 16.3474 24.8371 15.955C24.3213 15.5627 23.9046 15.0548 23.6207 14.4722C23.3367 13.8896 23.1934 13.2485 23.2021 12.6004Z" stroke="#384250" stroke-width="2" stroke-linecap="round" stroke-linejoin="round"/>
<path d="M14.3984 14.4004L14.3994 14.4014L14.4004 14.4004" stroke="#384250" stroke-width="3" stroke-linecap="round" stroke-linejoin="round"/>
<path d="M18.999 18L19 18.001L19.001 18" stroke="#384250" stroke-width="3" stroke-linecap="round" stroke-linejoin="round"/>
<path d="M19.2002 23.7998L19.2012 23.8008V23.7998" stroke="#384250" stroke-width="3" stroke-linecap="round" stroke-linejoin="round"/>
<path d="M13.1992 20.4004L13.2002 20.4014L13.2012 20.4004" stroke="#384250" stroke-width="3" stroke-linecap="round" stroke-linejoin="round"/>
</svg>
