<svg width="24" height="24" viewBox="0 0 24 24" fill="none" xmlns="http://www.w3.org/2000/svg">
<path d="M16.7867 8.69408C19.4301 11.3375 19.4301 15.6241 16.7867 18.2675C14.1433 20.9108 9.85669 20.9108 7.21331 18.2675C4.56993 15.6241 4.56993 11.3375 7.21331 8.69408C9.85669 6.05069 14.1433 6.05069 16.7867 8.69408" stroke="currentColor" stroke-width="1.5" stroke-linecap="round" stroke-linejoin="round"/>
<path d="M12.4231 13.4791C12.4231 13.2455 12.2336 13.0568 12 13.0577C11.7665 13.0585 11.577 13.2481 11.577 13.4816C11.577 13.7151 11.7657 13.9038 11.9992 13.9038C12.2327 13.9038 12.4223 13.7143 12.4231 13.4799" stroke="currentColor" stroke-width="1.5" stroke-linecap="round" stroke-linejoin="round"/>
<path d="M12 10.0962V13.4808" stroke="currentColor" stroke-width="1.5" stroke-linecap="round" stroke-linejoin="round"/>
<path d="M10.3077 4.17308H13.6924" stroke="currentColor" stroke-width="1.5" stroke-linecap="round" stroke-linejoin="round"/>
</svg>