<svg width="40" height="40" viewBox="0 0 40 40" fill="none" xmlns="http://www.w3.org/2000/svg">
<g clip-path="url(#clip0_24493_14831)">
<path d="M14.602 36.0001C17.5822 36.0001 20.001 33.6407 20.001 30.7335V25.4668H14.602C11.6218 25.4668 9.20312 27.8263 9.20312 30.7335C9.20312 33.6407 11.6218 36.0001 14.602 36.0001Z" fill="#0ACF83"/>
<path d="M9.20312 20.2003C9.20312 17.2931 11.6218 14.9336 14.602 14.9336H20.001V25.4669H14.602C11.6218 25.4669 9.20312 23.1075 9.20312 20.2003Z" fill="#A259FF"/>
<path d="M9.20312 9.66706C9.20312 6.75986 11.6218 4.40039 14.602 4.40039H20.001V14.9337H14.602C11.6218 14.9337 9.20312 12.5743 9.20312 9.66706Z" fill="#F24E1E"/>
<path d="M20 4.40039H25.3989C28.3791 4.40039 30.7978 6.75986 30.7978 9.66706C30.7978 12.5743 28.3791 14.9337 25.3989 14.9337H20V4.40039Z" fill="#FF7262"/>
<path d="M30.7978 20.2003C30.7978 23.1075 28.3791 25.4669 25.3989 25.4669C22.4187 25.4669 20 23.1075 20 20.2003C20 17.2931 22.4187 14.9336 25.3989 14.9336C28.3791 14.9336 30.7978 17.2931 30.7978 20.2003Z" fill="#1ABCFE"/>
</g>
<defs>
<clipPath id="clip0_24493_14831">
<rect width="21.6" height="31.6" fill="white" transform="translate(9.19922 4.40039)"/>
</clipPath>
</defs>
</svg>
