<?xml version="1.0"?>
<svg xmlns="http://www.w3.org/2000/svg" viewBox="0 0 24 24">
    <defs>
        <style>.a{fill:none;stroke:#323232;stroke-linecap:round;stroke-linejoin:round;stroke-width:1.5px;}</style>
    </defs>
    <line class="a" x1="19" y1="7" x2="19" y2="3"></line>
    <line class="a" x1="21" y1="5" x2="17" y2="5"></line>
    <path class="a" d="M19.6772,11.53208,14.56947,9.59147A2.00242,2.00242,0,0,1,13.40884,8.431L11.46739,3.32236a.5.5,0,0,0-.93478,0L8.59116,8.431A2.00239,2.00239,0,0,1,7.43054,9.59146L2.3228,11.53208a.50054.50054,0,0,0,0,.93584l5.10774,1.94061A2.00238,2.00238,0,0,1,8.59116,15.569l1.94145,5.10863a.5.5,0,0,0,.93478,0L13.40884,15.569a2.00238,2.00238,0,0,1,1.16062-1.16048l5.10774-1.94061A.50054.50054,0,0,0,19.6772,11.53208Z"></path>
    <line class="a" x1="19" y1="21" x2="19" y2="17"></line>
    <line class="a" x1="21" y1="19" x2="17" y2="19"></line>
</svg>