<svg xmlns="http://www.w3.org/2000/svg" fill="none" viewBox="0 0 20 20" class="size-5 shrink-0 text-ln-gray-400 transition ease-linear"><path stroke="currentColor" stroke-linecap="square" stroke-linejoin="round" stroke-width="1.25" d="M9.374 3.958H3.958c-.92 0-1.667.747-1.667 1.667v8.75c0 .92.746 1.667 1.667 1.667h5.416m0-12.084h6.667c.92 0 1.667.747 1.667 1.667v8.75c0 .92-.746 1.667-1.667 1.667H9.374m0-12.084v12.084"></path><path fill="currentColor" stroke="currentColor" stroke-width="0.417" d="M5.209 7.083a.625.625 0 1 0 1.25 0 .625.625 0 0 0-1.25 0Zm0 2.917a.625.625 0 1 0 1.25 0 .625.625 0 0 0-1.25 0Zm0 2.917a.625.625 0 1 0 1.25 0 .625.625 0 0 0-1.25 0Z"></path></svg>