<svg width="24" height="24" viewBox="0 0 24 24" fill="none" xmlns="http://www.w3.org/2000/svg">
<path d="M3.5 19.9999L7.87 15.6299" stroke="#323232" stroke-width="1.5" stroke-linecap="round" stroke-linejoin="round"/>
<path d="M9.98949 10.5766H6.78246C6.71548 10.5769 6.65236 10.604 6.60765 10.6489L6.6057 10.6509L5.43089 11.8247C5.3453 11.9108 5.33526 12.0422 5.39867 12.1382L5.43089 12.1772L11.2668 18.0132L11.3069 18.0464C11.4042 18.1105 11.5359 18.0986 11.6203 18.0141V18.0132L12.7952 16.8384C12.8425 16.7911 12.8694 16.7277 12.8694 16.6616V13.4565L14.3694 14.9565V16.6616C14.3694 17.1253 14.1851 17.5703 13.8567 17.8989L12.6809 19.0747C12.0401 19.7159 11.0261 19.7553 10.3391 19.1948L10.2063 19.0747L4.37035 13.2388L4.37132 13.2378C3.687 12.5544 3.68728 11.4464 4.37035 10.7632L5.54613 9.58934C5.87485 9.25984 6.32092 9.07687 6.78246 9.07664H8.48949L9.98949 10.5766ZM13.8313 2.75438C14.5145 2.06953 15.6224 2.07045 16.3059 2.7534L20.6926 7.13914H20.6916C21.3337 7.77973 21.3731 8.79352 20.8127 9.48094L20.6926 9.61473L20.1184 10.188C19.8114 10.4949 19.4018 10.6751 18.9729 10.6977H18.7883L16.8118 10.5923L14.3694 13.0356V13.5425L13.0578 12.2309C13.068 12.2194 13.0772 12.2068 13.0881 12.1958L15.9885 9.29539L16.0471 9.24266C16.1904 9.12673 16.3729 9.06684 16.5588 9.07664L18.8674 9.19969L18.9202 9.19676C18.9721 9.18849 19.021 9.16421 19.0578 9.12743L19.6311 8.55321L19.6643 8.51414C19.7286 8.4167 19.7167 8.28511 19.6321 8.20067H19.6311L15.2453 3.81395C15.1592 3.72828 15.0279 3.71823 14.9319 3.78172L14.8928 3.81395H14.8918L14.3186 4.38817C14.2804 4.42647 14.2561 4.47465 14.2483 4.52489L14.2453 4.57567L14.2463 4.57762L14.3684 6.88719V6.96629C14.3601 7.12399 14.3025 7.27506 14.2034 7.39793L14.1506 7.4575L11.2502 10.3569C11.2391 10.3681 11.2249 10.3758 11.2131 10.3862L9.90355 9.07664H10.4094L12.8528 6.63231L12.7483 4.66063L12.7473 4.4741C12.7691 4.04336 12.9512 3.63456 13.258 3.32762L13.8313 2.7534V2.75438Z" fill="#323232"/>
<path d="M7.07928 5.22046L18.1573 16.2985" stroke="#323232" stroke-width="1.5" stroke-linecap="round" stroke-linejoin="round"/>
</svg>