<svg width="24" height="24" viewBox="0 0 24 24" fill="none" xmlns="http://www.w3.org/2000/svg">
<path d="M7.39649 15.0479C7.69107 14.8077 8.12581 14.8251 8.4004 15.0997C8.67493 15.3743 8.6924 15.809 8.45215 16.1036L8.4004 16.1602L4.03028 20.5304C3.7374 20.8232 3.26261 20.8232 2.96973 20.5304C2.67686 20.2375 2.6769 19.7627 2.96973 19.4698L7.33985 15.0997L7.39649 15.0479Z" fill="#323232"/>
<path d="M9.98891 10.5768H6.78285C6.71573 10.5769 6.65285 10.604 6.60805 10.649L5.43129 11.8248C5.34556 11.911 5.33547 12.0422 5.39907 12.1383L5.43129 12.1773L11.2672 18.0133L11.3073 18.0465C11.4046 18.1106 11.5364 18.0988 11.6207 18.0143L12.7956 16.8385C12.8428 16.7912 12.8697 16.7278 12.8698 16.6617V13.4576L14.3698 14.9576V16.6617C14.3697 17.1253 14.1855 17.5704 13.8571 17.899L12.6813 19.0748C12.0405 19.716 11.0266 19.7554 10.3395 19.1949L10.2067 19.0748L4.37075 13.2389L4.37172 13.2379C3.68714 12.5545 3.68752 11.4466 4.37075 10.7633L5.54653 9.58946C5.87535 9.25986 6.32117 9.07688 6.78285 9.07676H8.48891L9.98891 10.5768Z" fill="#323232"/>
<path d="M13.8317 2.75449C14.515 2.06957 15.6228 2.07033 16.3063 2.75352L20.693 7.13926C21.335 7.77985 21.3735 8.79367 20.8131 9.48106L20.693 9.61485L20.1188 10.1881C19.8118 10.4951 19.4022 10.6752 18.9733 10.6979H18.7887L16.8122 10.5924L14.3698 13.0357V13.5436L13.0582 12.232C13.0686 12.2203 13.0774 12.2071 13.0885 12.1959L15.9889 9.29551L16.0475 9.24278C16.1909 9.12676 16.3732 9.06685 16.5592 9.07676L18.8678 9.19981L18.9206 9.19688C18.9725 9.1886 19.0214 9.16437 19.0582 9.12754L19.6315 8.55332L19.6647 8.51426C19.729 8.41686 19.717 8.28523 19.6325 8.20078L15.2457 3.81406C15.1596 3.72819 15.0284 3.71829 14.9323 3.78184L14.8932 3.81406L14.319 4.38828C14.2807 4.4266 14.2565 4.47474 14.2487 4.525L14.2457 4.57578L14.2467 4.57774L14.3688 6.88731V6.96641C14.3605 7.12403 14.3029 7.27523 14.2038 7.39805L14.151 7.45762L11.2506 10.357C11.2393 10.3684 11.2255 10.3768 11.2135 10.3873L9.90297 9.07676H10.4098L12.8532 6.63242L12.7487 4.66074L12.7477 4.47422C12.7695 4.04343 12.9515 3.63469 13.2584 3.32774L13.8317 2.75449Z" fill="#323232"/>
<path d="M6.54901 4.6903C6.82361 4.4157 7.25833 4.39824 7.55291 4.63854L7.60955 4.6903L18.6877 15.7684L18.7394 15.8251C18.9796 16.1196 18.9622 16.5544 18.6877 16.829C18.4131 17.1035 17.9784 17.1209 17.6838 16.8807L17.6271 16.829L6.54901 5.75085L6.49725 5.69421C6.25694 5.39963 6.2744 4.96491 6.54901 4.6903Z" fill="#323232"/>
<path d="M13.0048 6.36437C13.2795 6.08977 13.7142 6.07231 14.0088 6.31262L14.0654 6.36437L16.9658 9.26477L17.0166 9.32141C17.2569 9.61599 17.2404 10.0507 16.9658 10.3253C16.6912 10.5999 16.2565 10.6164 15.9619 10.3761L15.9052 10.3253L13.0048 7.42492L12.9531 7.36828C12.7128 7.0737 12.7302 6.63898 13.0048 6.36437Z" fill="#323232"/>
</svg>