<svg width="24" height="24" viewBox="0 0 24 24" fill="none" xmlns="http://www.w3.org/2000/svg">
<path d="M3.5 19.9999L7.87 15.6299" stroke="#323232" stroke-width="1.5" stroke-linecap="round" stroke-linejoin="round"/>
<path d="M11.518 9.08397L13.675 6.92697L13.552 4.61797C13.536 4.33497 13.642 4.05897 13.843 3.85797L14.417 3.28397C14.807 2.89297 15.44 2.89297 15.831 3.28397L20.217 7.66997C20.608 8.05997 20.608 8.69297 20.217 9.08397L19.643 9.65797C19.443 9.85797 19.166 9.96397 18.883 9.94897L16.574 9.82597L14.3387 12.0613" stroke="#323232" stroke-width="1.5" stroke-linecap="round" stroke-linejoin="round"/>
<path d="M13.8083 16.9416L12.206 18.5439C11.816 18.9349 11.183 18.9349 10.792 18.5439L7.874 15.6259L4.956 12.7079C4.565 12.3179 4.565 11.6849 4.956 11.2939L6.57332 9.67651" stroke="#323232" stroke-width="1.5" stroke-linecap="square" stroke-linejoin="round"/>
<path d="M16.7835 9.42173L13.8835 6.52173" stroke="#323232" stroke-width="1.5" stroke-linecap="round" stroke-linejoin="round"/>
<path d="M18.3205 17.0867L5.82259 4.58861" stroke="#323232" stroke-width="1.5" stroke-linecap="round" stroke-linejoin="round"/>
</svg>