<svg width="36" height="36" viewBox="0 0 36 36" fill="none" xmlns="http://www.w3.org/2000/svg">
<rect width="36" height="36" rx="8" fill="black"/>
<g filter="url(#filter0_i_588_414)">
<path d="M26.4167 10L22.25 12.0833V19.1667C22.25 21.1917 20.6084 22.8333 18.5833 22.8333H13V27H20.0833C23.5811 27 26.4167 24.1645 26.4167 20.6667V10Z" fill="white"/>
<path d="M16.5079 10.2666L13.1746 12.0721C13.067 12.1304 13 12.2429 13 12.3652V16.1369C13 16.6186 12.7402 17.0628 12.3203 17.299L9.16991 19.0711C9.06495 19.1301 9 19.2412 9 19.3616V22.8333H13.0834V17.8113C13.0834 17.3658 13.3371 16.9592 13.7372 16.7634L16.8132 15.2581C16.9275 15.2021 17 15.086 17 14.9587V10.5596C17 10.3071 16.73 10.1462 16.5079 10.2666Z" fill="white"/>
</g>
<defs>
<filter id="filter0_i_588_414" x="9" y="9" width="17.4167" height="18" filterUnits="userSpaceOnUse" color-interpolation-filters="sRGB">
<feFlood flood-opacity="0" result="BackgroundImageFix"/>
<feBlend mode="normal" in="SourceGraphic" in2="BackgroundImageFix" result="shape"/>
<feColorMatrix in="SourceAlpha" type="matrix" values="0 0 0 0 0 0 0 0 0 0 0 0 0 0 0 0 0 0 127 0" result="hardAlpha"/>
<feOffset dy="-1"/>
<feGaussianBlur stdDeviation="1"/>
<feComposite in2="hardAlpha" operator="arithmetic" k2="-1" k3="1"/>
<feColorMatrix type="matrix" values="0 0 0 0 0.604079 0 0 0 0 0.604079 0 0 0 0 0.604079 0 0 0 1 0"/>
<feBlend mode="normal" in2="shape" result="effect1_innerShadow_588_414"/>
</filter>
</defs>
</svg>
