<svg width="16" height="16" viewBox="0 0 16 16" fill="none" xmlns="http://www.w3.org/2000/svg">
<g clip-path="url(#clip0_9752_129859)">
<path d="M5.33203 5.33203V3.46536C5.33203 2.71863 5.33203 2.34526 5.47736 2.06004C5.60519 1.80916 5.80916 1.60519 6.06004 1.47736C6.34526 1.33203 6.71863 1.33203 7.46537 1.33203H12.532C13.2788 1.33203 13.6521 1.33203 13.9374 1.47736C14.1882 1.60519 14.3922 1.80916 14.52 2.06004C14.6654 2.34526 14.6654 2.71863 14.6654 3.46536V8.53203C14.6654 9.27877 14.6654 9.65214 14.52 9.93735C14.3922 10.1882 14.1882 10.3922 13.9374 10.52C13.6521 10.6654 13.2788 10.6654 12.532 10.6654H10.6654M3.46536 14.6654H8.53203C9.27877 14.6654 9.65214 14.6654 9.93735 14.52C10.1882 14.3922 10.3922 14.1882 10.52 13.9374C10.6654 13.6521 10.6654 13.2788 10.6654 12.532V7.46537C10.6654 6.71863 10.6654 6.34526 10.52 6.06004C10.3922 5.80916 10.1882 5.60519 9.93735 5.47736C9.65214 5.33203 9.27877 5.33203 8.53203 5.33203H3.46536C2.71863 5.33203 2.34526 5.33203 2.06004 5.47736C1.80916 5.60519 1.60519 5.80916 1.47736 6.06004C1.33203 6.34526 1.33203 6.71863 1.33203 7.46537V12.532C1.33203 13.2788 1.33203 13.6521 1.47736 13.9374C1.60519 14.1882 1.80916 14.3922 2.06004 14.52C2.34526 14.6654 2.71863 14.6654 3.46536 14.6654Z" stroke="#6C737F" stroke-width="1.2" stroke-linecap="round" stroke-linejoin="round"/>
</g>
<defs>
<clipPath id="clip0_9752_129859">
<rect width="16" height="16" fill="white"/>
</clipPath>
</defs>
</svg>