<svg xmlns="http://www.w3.org/2000/svg" fill="none" viewBox="0 0 20 20" class="size-5 shrink-0 text-ln-gray-400 transition ease-linear"><path stroke="currentColor" stroke-width="1.25" d="M9.99 2H7.32a2.67 2.67 0 0 0-2.67 2.667 2.67 2.67 0 0 0 2.67 2.666M9.99 2v5.333M9.99 2h2.67a2.67 2.67 0 0 1 2.67 2.667 2.67 2.67 0 0 1-2.67 2.666m-2.67 0H7.32m2.67 0v5.334m0-5.334h2.67m-5.34 0A2.67 2.67 0 0 0 4.65 10a2.67 2.67 0 0 0 2.67 2.667m2.67 0H7.32m2.67 0v2.666A2.67 2.67 0 0 1 7.32 18a2.67 2.67 0 0 1-2.67-2.667 2.67 2.67 0 0 1 2.67-2.666m5.34-5.334A2.67 2.67 0 0 0 9.99 10a2.67 2.67 0 0 0 2.67 2.667A2.67 2.67 0 0 0 15.33 10a2.67 2.67 0 0 0-2.67-2.667Z"></path></svg>