<svg viewBox="0 0 24 24" xmlns="http://www.w3.org/2000/svg" width="24" height="24" fill="currentColor" class="remixicon flex size-5 shrink-0 select-none items-center justify-center transition duration-200 ease-out group-has-[:placeholder-shown]:text-text-soft-400 text-text-sub-600 group-has-[:placeholder-shown]:group-hover/input-wrapper:text-text-sub-600 group-has-[:placeholder-shown]:group-has-[input:focus]/input-wrapper:text-text-sub-600 group-has-[input:disabled]/input-wrapper:text-text-disabled-300"><path d="M11 2C15.968 2 20 6.032 20 11C20 15.968 15.968 20 11 20C6.032 20 2 15.968 2 11C2 6.032 6.032 2 11 2ZM11 18C14.8675 18 18 14.8675 18 11C18 7.1325 14.8675 4 11 4C7.1325 4 4 7.1325 4 11C4 14.8675 7.1325 18 11 18ZM19.4853 18.0711L22.3137 20.8995L20.8995 22.3137L18.0711 19.4853L19.4853 18.0711Z"></path></svg>